<?xml version="1.0" encoding="UTF-8"?><svg id="Layer_1" xmlns="http://www.w3.org/2000/svg" viewBox="0 0 392.39 60.82"><defs><style>.cls-1{fill:#adb6a1;}.cls-2{fill:#413a3c;}</style></defs><polygon class="cls-2" points="20.64 13.95 20.64 .57 20.6 .57 9.89 .57 9.85 .57 9.85 13.95 0 13.95 2.55 23.48 9.85 23.48 9.85 60.49 9.89 60.49 20.6 60.49 20.64 60.49 20.64 23.48 27.95 23.48 30.49 13.95 20.64 13.95"/><path class="cls-2" d="M52.4,25.94c-.98-.11-1.61-.16-1.89-.16-2.3,0-4.45,.59-6.44,1.77-2,1.18-3.57,2.75-4.72,4.72-1.2,1.91-1.81,4.08-1.81,6.48l.16,22.08h-9.6l-.08-23.56c0-3.88,1-7.48,3-10.79,2-3.31,4.75-5.95,8.25-7.92,3.39-1.91,7.06-2.87,11-2.87l2.13,.16v10.1Z"/><path class="cls-2" d="M86.8,56.39c-3.94,2.79-8.26,4.19-12.97,4.19-4,0-7.7-1-11.12-3-3.42-2-6.12-4.72-8.09-8.17-2.03-3.34-3.04-7.03-3.04-11.08s1-7.7,3-11.12c2-3.42,4.72-6.14,8.17-8.17,3.39-1.97,7.09-2.95,11.08-2.95s7.62,.97,11.04,2.91c3.42,1.94,6.14,4.56,8.17,7.84,2.02,3.34,3.04,6.95,3.04,10.83l-.08,22.66h-9.19v-3.94Zm-1.77-24.5c-1.18-2-2.75-3.6-4.72-4.8-1.97-1.15-4.13-1.72-6.48-1.72s-4.45,.59-6.44,1.77c-2,1.18-3.57,2.75-4.72,4.72-1.2,1.92-1.81,4.08-1.81,6.49s.59,4.45,1.77,6.44c1.18,2,2.75,3.57,4.72,4.72,1.91,1.2,4.08,1.81,6.48,1.81s4.45-.59,6.44-1.77c2-1.18,3.6-2.75,4.8-4.72,1.15-1.97,1.72-4.13,1.72-6.48s-.59-4.45-1.77-6.44Z"/><path class="cls-2" d="M100.3,10.63c-1.18-1.18-1.77-2.61-1.77-4.31s.59-3.05,1.77-4.23,2.61-1.76,4.31-1.76,3.13,.59,4.31,1.76c1.18,1.18,1.77,2.59,1.77,4.23s-.59,3.13-1.77,4.31c-1.18,1.18-2.61,1.77-4.31,1.77s-3.13-.59-4.31-1.77Zm9.89,50.19h-10.75V16.25h10.75V60.82Z"/><path class="cls-2" d="M146.55,35.79c0-3.17-1.1-5.68-3.28-7.51-2.19-1.83-4.84-2.75-7.96-2.75s-5.86,.92-8.05,2.75c-2.19,1.83-3.28,4.34-3.28,7.51v24.87h-9.19v-24.87c0-3.83,.94-7.24,2.83-10.22,1.89-2.98,4.45-5.3,7.68-6.94,3.17-1.59,6.51-2.38,10.01-2.38s6.98,.81,10.1,2.42,5.66,3.87,7.63,6.77c1.91,3.06,2.87,6.51,2.87,10.34l-.16,24.87h-9.19v-24.87Z"/><path class="cls-2" d="M173.97,21.67c0-3.88,1-7.48,3-10.79,2-3.31,4.75-5.95,8.25-7.92,3.39-1.91,7.06-2.87,11-2.87l2.13,.16V10.34c-.98-.11-1.61-.16-1.89-.16-2.9,0-5.51,.87-7.84,2.63-2.33,1.75-3.87,4-4.64,6.73h11.98l-2.55,9.52h-9.93l.16,31.52h-9.6l-.08-38.91Z"/><path class="cls-2" d="M205.77,57.66c-3.42-2-6.12-4.72-8.09-8.17-2.03-3.34-3.04-7.03-3.04-11.08s1-7.7,3-11.12c2-3.42,4.72-6.14,8.17-8.17,3.39-1.97,7.09-2.95,11.08-2.95s7.63,1,11.08,3c3.45,2,6.18,4.69,8.21,8.09,1.97,3.45,2.95,7.17,2.95,11.16s-1,7.7-3,11.12c-2,3.42-4.69,6.12-8.09,8.09-3.39,2.02-7.11,3.04-11.16,3.04s-7.7-1-11.12-3Z"/><path class="cls-1" d="M223.09,49.08c1.89-1.09,3.38-2.6,4.47-4.51,1.09-1.91,1.64-3.97,1.64-6.16s-.53-4.31-1.6-6.2-2.56-3.38-4.47-4.47c-1.92-1.09-4-1.64-6.24-1.64s-4.31,.53-6.2,1.6c-1.89,1.07-3.38,2.56-4.47,4.47-1.09,1.91-1.64,3.99-1.64,6.24s.55,4.31,1.64,6.2c1.09,1.89,2.6,3.38,4.51,4.47,1.91,1.09,3.97,1.64,6.16,1.64s4.31-.55,6.2-1.64Z"/><path class="cls-2" d="M265.98,25.94c-.98-.11-1.61-.16-1.89-.16-2.3,0-4.45,.59-6.44,1.77-2,1.18-3.57,2.75-4.72,4.72-1.2,1.91-1.81,4.08-1.81,6.48l.16,22.08h-9.6l-.08-23.56c0-3.88,1-7.48,3-10.79,2-3.31,4.75-5.95,8.25-7.92,3.39-1.91,7.06-2.87,11-2.87l2.13,.16v10.1Z"/><path class="cls-1" d="M295.61,0V60.58h-10.75V0h10.75Z"/><path class="cls-1" d="M300.66,10.63c-1.18-1.18-1.77-2.61-1.77-4.31s.59-3.05,1.77-4.23,2.61-1.76,4.31-1.76,3.13,.59,4.31,1.76c1.18,1.18,1.77,2.59,1.77,4.23s-.59,3.13-1.77,4.31c-1.18,1.18-2.61,1.77-4.31,1.77s-3.13-.59-4.31-1.77Zm9.89,50.19h-10.75V16.25h10.75V60.82Z"/><path class="cls-1" d="M313.51,21.67c0-3.88,1-7.48,3-10.79,2-3.31,4.75-5.95,8.25-7.92,3.39-1.91,7.06-2.87,11-2.87l2.13,.16V10.34c-.98-.11-1.61-.16-1.89-.16-2.9,0-5.51,.87-7.84,2.63-2.33,1.75-3.87,4-4.64,6.73h11.98l-2.55,9.52h-9.93l.16,31.52h-9.6l-.08-38.91Z"/><path class="cls-1" d="M343.88,20.11c3.83-2.63,8.05-3.94,12.64-3.94,3.12,0,6.35,.75,9.69,2.26,3.34,1.5,6.18,3.98,8.54,7.43,2.57,3.89,3.86,8.07,3.86,12.56,0,1.2-.08,2.38-.25,3.53l-.16-.08v.08l-33.98,.9c.66,1.81,1.64,3.38,2.95,4.72s2.84,2.34,4.6,3c1.42,.55,2.95,.82,4.6,.82,1.86,0,3.65-.37,5.38-1.11,1.72-.74,3.19-1.79,4.39-3.16l8.95,3.45c-2.03,3.12-4.71,5.58-8.05,7.39s-6.89,2.71-10.67,2.71c-3.17,0-6.42-.75-9.73-2.26-3.31-1.5-6.14-4.01-8.5-7.51-2.63-3.88-3.94-8.07-3.94-12.56,0-2.63,.49-5.25,1.48-7.88,1.64-4.27,4.38-7.72,8.21-10.34Zm.25,14.2l24.38-.57c-.6-1.7-1.55-3.19-2.83-4.47-1.29-1.28-2.81-2.26-4.56-2.91-1.42-.55-2.95-.82-4.6-.82-2.68,0-5.14,.74-7.39,2.22-2.24,1.48-3.86,3.5-4.84,6.08l-.16,.49Z"/><path class="cls-2" d="M382.01,59.06c-1.18-1.18-1.77-2.61-1.77-4.31s.59-3.05,1.77-4.23c1.18-1.18,2.61-1.77,4.31-1.77s3.13,.59,4.31,1.77,1.77,2.59,1.77,4.23-.59,3.13-1.77,4.31c-1.18,1.18-2.61,1.77-4.31,1.77s-3.13-.59-4.31-1.77Z"/></svg>