<?xml version="1.0" encoding="utf-8"?>
<!-- Generator: Adobe Illustrator 26.2.1, SVG Export Plug-In . SVG Version: 6.00 Build 0)  -->
<svg version="1.1" id="Layer_1" xmlns="http://www.w3.org/2000/svg" xmlns:xlink="http://www.w3.org/1999/xlink" x="0px" y="0px"
	 viewBox="0 0 400 132.63" style="enable-background:new 0 0 400 132.63;" xml:space="preserve">
<style type="text/css">
	.st0{fill:#FFF;}
	.st1{fill:#94E522;}
</style>
<g>
	<path class="st0" d="M47.29,113.64c-0.78,4.06-2.16,7.35-5.19,9.6c-2.98,2.25-7.65,3.5-15.09,3.5c-7.39,0-21.1-0.52-21.1-16.52
		c0-16,13.71-16.52,21.1-16.52c7.35,0,18.68,0.95,20.28,13.19H33.54c-0.35-2.2-1.82-5.4-6.53-5.4c-4.97,0-8.13,2.46-8.13,8.73
		c0,6.27,3.07,8.73,7.52,8.73c3.85,0,6.14-1.6,7.13-5.32H47.29z"/>
	<path class="st0" d="M71.07,93.71c7.39,0,21.1,0.52,21.1,16.52c0,16-13.71,16.52-21.1,16.52c-7.39,0-21.1-0.52-21.1-16.52
		C49.97,94.23,63.68,93.71,71.07,93.71z M71.07,118.96c4.97,0,8.13-2.46,8.13-8.73c0-6.27-3.16-8.73-8.13-8.73
		c-4.97,0-8.13,2.46-8.13,8.73C62.94,116.49,66.1,118.96,71.07,118.96z"/>
	<path class="st0" d="M96.49,94.79h13.92l12.37,17.12h0.13V94.79h11.67v30.87h-13.36l-12.97-17.29h-0.09v17.29H96.49V94.79z"/>
	<path class="st0" d="M135.75,94.79h13.4l6.79,19.8h0.09l6.79-19.8h13.4l-13.84,30.87h-12.8L135.75,94.79z"/>
	<path class="st0" d="M177.39,94.79h32.82v7.52h-20.62v4.15h19.15v7.52h-19.15v4.15h20.62v7.52h-32.82V94.79z"/>
	<path class="st0" d="M214.22,94.79h13.92l12.37,17.12h0.13V94.79h11.67v30.87h-13.36l-12.97-17.29h-0.09v17.29h-11.67V94.79z"/>
	<path class="st0" d="M266.41,102.57h-11.28v-7.78h34.76v7.78H278.6v23.09h-12.19V102.57z"/>
	<path class="st0" d="M292.83,94.79h12.19v30.87h-12.19V94.79z"/>
	<path class="st0" d="M330.57,93.71c7.39,0,21.1,0.52,21.1,16.52c0,16-13.71,16.52-21.1,16.52c-7.39,0-21.1-0.52-21.1-16.52
		C309.47,94.23,323.18,93.71,330.57,93.71z M330.57,118.96c4.97,0,8.13-2.46,8.13-8.73c0-6.27-3.16-8.73-8.13-8.73
		s-8.13,2.46-8.13,8.73C322.44,116.49,325.6,118.96,330.57,118.96z"/>
	<path class="st0" d="M356,94.79h13.92l12.37,17.12h0.13V94.79h11.67v30.87h-13.36l-12.97-17.29h-0.09v17.29H356V94.79z"/>
	<path class="st1" d="M220.85,51.85c-6.51-14.29-13.01-28.59-19.53-42.88c-0.36-0.8-0.82-1.55-1.34-2.51
		c-0.34,0.6-0.5,0.84-0.62,1.1c-6.76,14.8-13.5,29.61-20.29,44.4c-0.6,1.31-0.43,2.22,0.49,3.3c6.75,7.92,13.45,15.89,20.45,24.19
		c7.07-8.41,13.92-16.6,20.82-24.74C221.72,53.64,221.28,52.8,220.85,51.85z M213.45,53.96c-4.42,5.16-8.76,10.39-13.45,15.98
		c-3.38-4.01-6.53-7.75-9.68-11.49c-1.28-1.52-2.66-2.96-3.79-4.58c-0.44-0.62-0.65-1.81-0.36-2.47
		c4.37-9.83,8.85-19.62,13.31-29.41c0.07-0.14,0.27-0.23,0.62-0.51c0.41,0.73,0.85,1.39,1.17,2.11c4.15,9.11,8.27,18.23,12.45,27.32
		C214.26,52.07,214.35,52.91,213.45,53.96z"/>
	<path class="st1" d="M149.29,29.24c-0.13,0.06-0.26,0.12-0.4,0.18c3.14,16.73,6.27,33.46,9.39,50.07c10.89,0,21.32,0,32.18,0
		C176.56,62.52,162.92,45.88,149.29,29.24z M164.98,73.59c-1.09,0.01-1.76-0.37-1.97-1.53c-1.21-6.65-2.45-13.3-3.67-19.94
		c0.17-0.11,0.33-0.22,0.5-0.33c5.81,7.08,11.61,14.17,17.42,21.25c-0.13,0.18-0.27,0.36-0.4,0.55
		C172.89,73.58,168.94,73.57,164.98,73.59z"/>
	<path class="st1" d="M250.73,29.22c-13.66,16.67-27.31,33.34-41.23,50.33c11.07,0,21.54,0,32.22,0c3.14-16.78,6.27-33.46,9.4-50.14
		C250.98,29.35,250.85,29.28,250.73,29.22z M236.69,73.38c-4.63,0-9.11,0-14.2,0c6.04-7.4,11.83-14.48,17.63-21.57
		c0.19,0.1,0.38,0.21,0.57,0.31C239.36,59.15,238.05,66.17,236.69,73.38z"/>
</g>
</svg>
