<?xml version="1.0" encoding="utf-8"?>
<!-- Generator: Adobe Illustrator 26.2.1, SVG Export Plug-In . SVG Version: 6.00 Build 0)  -->
<svg version="1.1" id="Layer_1" xmlns="http://www.w3.org/2000/svg" xmlns:xlink="http://www.w3.org/1999/xlink" x="0px" y="0px"
	 viewBox="0 0 200 14.13" style="enable-background:new 0 0 200 14.13;" xml:space="preserve">
<style type="text/css">
	.st0{fill:#999999;}
	.st1{fill:#94E522;}
</style>
<g>
	<path class="st0" d="M39.67,3.85c0-0.51,0-1.05,0-1.6c2.8,0,5.6,0,8.41,0c0,0.52,0,1.03,0,1.6C45.28,3.85,42.49,3.85,39.67,3.85z"
		/>
	<path class="st0" d="M94.35,2.25c0,0.53,0,1.04,0,1.57c-2.79,0-5.58,0-8.38,0c0-0.52,0-1.03,0-1.57
		C88.76,2.25,91.55,2.25,94.35,2.25z"/>
	<path class="st0" d="M196.22,7.92c-1.24,0-2.43,0-3.65,0c0-0.53,0-1.05,0-1.58c1.8,0,3.61,0,5.45,0c0,0.29,0.01,0.59,0,0.88
		c-0.03,0.67-0.02,1.35-0.11,2.01c-0.14,1.1-0.79,1.84-1.78,2.29c-0.97,0.44-2.01,0.59-3.07,0.53c-0.77-0.04-1.54-0.12-2.3-0.27
		c-1.25-0.24-2.02-1.04-2.33-2.27c-0.4-1.59-0.4-3.2-0.02-4.8c0.29-1.24,1.05-2.04,2.26-2.36c1.66-0.43,3.34-0.44,4.99,0.08
		c0.77,0.24,1.41,0.68,1.91,1.36c-0.5,0.36-0.99,0.72-1.48,1.07c-0.22-0.2-0.42-0.41-0.65-0.59c-0.55-0.41-1.2-0.51-1.85-0.56
		c-0.67-0.05-1.35-0.01-2.01,0.15c-0.75,0.18-1.24,0.65-1.42,1.41c-0.27,1.16-0.27,2.33-0.02,3.49c0.21,0.96,0.85,1.45,1.8,1.58
		c0.93,0.12,1.86,0.13,2.79-0.09c0.83-0.2,1.32-0.74,1.42-1.59C196.17,8.43,196.19,8.19,196.22,7.92z"/>
	<path class="st0" d="M175.87,5.06c0,2.31,0,4.55,0,6.81c-0.59,0-1.17,0-1.76,0c0-3.2,0-6.4,0-9.63c0.55,0,1.09-0.01,1.63,0.01
		c0.1,0,0.2,0.12,0.28,0.2c1.71,2.07,3.41,4.14,5.12,6.21c0.06,0.07,0.12,0.13,0.22,0.25c0-2.25,0-4.43,0-6.64c0.6,0,1.17,0,1.76,0
		c0,3.2,0,6.39,0,9.61c-0.55,0-1.09,0.01-1.64-0.01c-0.1,0-0.22-0.15-0.3-0.25c-1.08-1.33-2.15-2.66-3.23-4
		c-0.65-0.8-1.29-1.6-1.94-2.41C175.99,5.19,175.95,5.15,175.87,5.06z"/>
	<path class="st0" d="M154.81,5.14c0,2.24,0,4.48,0,6.73c-0.59,0-1.15,0-1.74,0c0-3.2,0-6.4,0-9.64c0.37,0,0.75,0.03,1.12-0.01
		c0.46-0.04,0.74,0.16,1.02,0.51c1.65,2.03,3.32,4.04,4.98,6.06c0.03,0.04,0.07,0.07,0.14,0.15c0-2.25,0-4.44,0-6.66
		c0.59,0,1.16,0,1.75,0c0,3.19,0,6.38,0,9.61c-0.37,0-0.76-0.04-1.13,0.01c-0.48,0.06-0.75-0.18-1.03-0.53
		c-1.6-2.01-3.22-4.01-4.84-6.02c-0.07-0.08-0.14-0.16-0.21-0.25C154.85,5.12,154.83,5.13,154.81,5.14z"/>
	<path class="st0" d="M125.48,8.44c0.85,1.15,1.66,2.27,2.5,3.42c-0.08,0.01-0.13,0.03-0.18,0.03c-0.56,0.01-1.12,0.01-1.69,0.02
		c-0.2,0-0.35-0.07-0.47-0.24c-0.68-0.95-1.37-1.89-2.05-2.84c-0.18-0.25-0.4-0.39-0.73-0.38c-0.58,0.01-1.16,0-1.77,0
		c0,1.14,0,2.27,0,3.42c-0.59,0-1.16,0-1.74,0c0-3.2,0-6.4,0-9.64c0.09,0,0.18,0,0.27,0c1.41,0,2.83,0,4.24,0.01
		c0.62,0.01,1.24,0.02,1.86,0.09c1.03,0.11,1.9,0.69,1.96,1.97c0.04,0.77,0.05,1.55-0.03,2.32c-0.11,1.01-0.86,1.63-1.97,1.79
		C125.64,8.42,125.59,8.43,125.48,8.44z M121.12,3.91c-0.01,0.1-0.02,0.17-0.02,0.25c0,0.8,0.01,1.6-0.01,2.4
		c0,0.21,0.06,0.28,0.27,0.27c1.18-0.01,2.37,0,3.55-0.01c0.18,0,0.36-0.02,0.53-0.06c0.33-0.06,0.49-0.25,0.5-0.58
		c0.01-0.49-0.01-0.99,0.01-1.48c0.02-0.59-0.23-0.8-0.85-0.8c-1.24,0.01-2.47,0-3.71,0C121.31,3.91,121.22,3.91,121.12,3.91z"/>
	<path class="st1" d="M8.2,10.2c0.47-0.35,0.93-0.69,1.41-1.05c0.93,1.15,2.22,1.28,3.55,1.25c0.47-0.01,0.93-0.07,1.39-0.16
		c0.23-0.05,0.46-0.18,0.64-0.33c0.46-0.39,0.38-0.99-0.18-1.2c-0.59-0.23-1.21-0.4-1.82-0.56c-0.91-0.23-1.83-0.4-2.73-0.63
		C10.1,7.43,9.75,7.28,9.42,7.11c-0.99-0.52-1.3-1.49-1.19-2.61C8.31,3.64,8.8,3.07,9.54,2.67c0.72-0.38,1.51-0.5,2.31-0.59
		c1.3-0.15,2.56-0.01,3.78,0.49c0.67,0.28,1.22,0.73,1.68,1.33c-0.49,0.35-0.97,0.69-1.43,1.03c-0.03-0.01-0.05-0.01-0.06-0.02
		c-0.97-1.18-2.28-1.33-3.67-1.19c-0.49,0.05-0.98,0.19-1.47,0.32c-0.44,0.12-0.65,0.4-0.65,0.8c0,0.35,0.18,0.58,0.62,0.7
		c1.1,0.28,2.21,0.54,3.31,0.82c0.49,0.12,0.99,0.25,1.48,0.39c1.47,0.42,1.95,1.52,1.83,2.88c-0.1,1.13-0.78,1.83-1.96,2.14
		c-1.75,0.46-3.48,0.43-5.2-0.15C9.33,11.35,8.7,10.88,8.2,10.2z"/>
	<path class="st0" d="M141.92,11.89c-0.61,0-1.17,0.01-1.73-0.01c-0.1,0-0.25-0.12-0.3-0.22c-0.77-1.46-1.53-2.92-2.28-4.39
		c-0.23-0.45-0.46-0.91-0.71-1.41c-0.11,0.21-0.21,0.38-0.3,0.56c-0.88,1.72-1.77,3.43-2.65,5.15c-0.13,0.26-0.3,0.35-0.58,0.34
		c-0.49-0.02-0.98,0-1.52,0c1.69-3.3,3.35-6.56,5.04-9.86C138.57,5.34,140.24,8.59,141.92,11.89z"/>
	<path class="st0" d="M85.96,6.31c2.37,0,4.73,0,7.1,0c0,0.51,0,1.02,0,1.55c-1.77,0-3.54,0-5.34,0c0,0.8,0,1.57,0,2.36
		c2.2,0,4.4,0,6.61,0c0,0.55,0,1.08,0,1.63c-2.79,0-5.57,0-8.38,0C85.96,10.01,85.96,8.17,85.96,6.31z"/>
	<path class="st0" d="M41.43,7.87c0,0.81,0,1.57,0,2.36c2.22,0,4.42,0,6.64,0c0,0.55,0,1.07,0,1.62c-2.79,0-5.58,0-8.39,0
		c0-1.84,0-3.68,0-5.53c2.35,0,4.71,0,7.09,0c0,0.51,0,1.02,0,1.56C45,7.87,43.23,7.87,41.43,7.87z"/>
	<path class="st0" d="M75.81,3.87c-0.19,0-0.34,0-0.5,0c-0.99,0-1.98,0-2.97,0c-0.18,0-0.24-0.05-0.23-0.23c0.01-0.46,0-0.92,0-1.39
		c3.05,0,6.07,0,9.11,0c0,0.53,0,1.04,0,1.58c-1.22,0-2.42,0-3.65,0c0,2.68,0,5.34,0,8.01c-0.6,0-1.17,0-1.77,0
		C75.81,9.2,75.81,6.56,75.81,3.87z"/>
	<path class="st0" d="M114.64,2.28c0,0.53,0,1.03,0,1.57c-1.22,0-2.44,0-3.68,0c0,2.69,0,5.35,0,8.03c-0.6,0-1.16,0-1.76,0
		c0-0.12,0-0.23,0-0.34c0-2.46,0-4.91,0-7.37c0-0.23-0.06-0.3-0.3-0.3c-1.12,0.01-2.23,0.01-3.37,0.01c0-0.54,0-1.06,0-1.6
		C108.57,2.28,111.59,2.28,114.64,2.28z"/>
	<path class="st0" d="M61.02,11.85c-2.71,0-5.41,0-8.13,0c0-3.19,0-6.38,0-9.59c0.57,0,1.14,0,1.74,0c0,2.65,0,5.3,0,7.97
		c2.14,0,4.26,0,6.39,0C61.02,10.79,61.02,11.31,61.02,11.85z"/>
	<path class="st0" d="M66.07,2.25c0.58,0,1.13,0,1.71,0c0,3.21,0,6.4,0,9.6c-0.58,0-1.13,0-1.71,0C66.07,8.65,66.07,5.47,66.07,2.25
		z"/>
	<path class="st0" d="M146.38,2.27c0.57,0,1.13,0,1.7,0c0,3.21,0,6.4,0,9.6c-0.57,0-1.13,0-1.7,0
		C146.38,8.69,146.38,5.5,146.38,2.27z"/>
	<path class="st0" d="M169.15,11.87c-0.57,0-1.13,0-1.7,0c0-3.2,0-6.39,0-9.6c0.57,0,1.13,0,1.7,0
		C169.15,5.48,169.15,8.67,169.15,11.87z"/>
	<path class="st1" d="M1.98,2.36c0.56,0,1.11,0,1.66,0c0,3.22,0,6.42,0,9.63c-0.56,0-1.1,0-1.66,0C1.98,8.79,1.98,5.58,1.98,2.36z"
		/>
	<path class="st1" d="M22.16,2.24c0.59,0,1.15,0,1.73,0c0,3.29,0,6.57,0,9.87c-0.58,0-1.15,0-1.73,0
		C22.16,8.83,22.16,5.54,22.16,2.24z"/>
	<g>
		<path class="st1" d="M30.56,2.65c0.39,0.22,0.7,0.52,0.93,0.9c0.23,0.38,0.34,0.79,0.34,1.23c0,0.44-0.11,0.85-0.34,1.23
			c-0.23,0.38-0.54,0.68-0.93,0.9c-0.39,0.22-0.82,0.33-1.28,0.33S28.39,7.13,28,6.91c-0.39-0.22-0.7-0.52-0.93-0.9
			c-0.23-0.38-0.34-0.79-0.34-1.23c0-0.44,0.11-0.85,0.34-1.23c0.23-0.38,0.54-0.68,0.93-0.9c0.39-0.22,0.82-0.33,1.28-0.33
			S30.17,2.43,30.56,2.65z M30.34,6.55c0.32-0.18,0.58-0.43,0.77-0.75c0.19-0.31,0.29-0.65,0.29-1.02c0-0.37-0.1-0.71-0.29-1.02
			c-0.19-0.31-0.45-0.56-0.77-0.75c-0.32-0.18-0.68-0.28-1.06-0.28s-0.73,0.09-1.06,0.28c-0.32,0.18-0.58,0.43-0.77,0.75
			c-0.19,0.31-0.29,0.65-0.29,1.02c0,0.37,0.1,0.71,0.29,1.02c0.19,0.31,0.45,0.56,0.77,0.75c0.32,0.18,0.68,0.28,1.06,0.28
			S30.01,6.73,30.34,6.55z M30.37,4.81c-0.1,0.14-0.25,0.24-0.44,0.3l0.66,1.05h-0.72l-0.61-0.99h-0.54v0.99h-0.63V3.4h1.4
			c0.32,0,0.58,0.08,0.76,0.23c0.18,0.16,0.27,0.37,0.27,0.64C30.52,4.49,30.47,4.67,30.37,4.81z M28.72,4.69h0.65
			c0.16,0,0.29-0.04,0.37-0.11c0.09-0.07,0.13-0.17,0.13-0.31c0-0.12-0.04-0.22-0.13-0.29c-0.09-0.07-0.21-0.11-0.37-0.11h-0.65
			V4.69z"/>
	</g>
</g>
</svg>
