<?xml version="1.0" encoding="utf-8"?>
<!-- Generator: Adobe Illustrator 26.3.1, SVG Export Plug-In . SVG Version: 6.00 Build 0)  -->
<svg version="1.1" id="Layer_1" xmlns="http://www.w3.org/2000/svg" xmlns:xlink="http://www.w3.org/1999/xlink" x="0px" y="0px"
	 viewBox="0 0 400 72.2" style="enable-background:new 0 0 400 72.2;" xml:space="preserve">
<style type="text/css">
	.st0{fill:#413A3C;}
	.st1{fill:#94E522;}
</style>
<polygon class="st0" points="24.4,19.6 24.4,6.3 24.4,6.3 13.7,6.3 13.7,6.3 13.7,19.6 3.8,19.6 6.4,29.2 13.7,29.2 13.7,66.2 
	13.7,66.2 24.4,66.2 24.4,66.2 24.4,29.2 31.8,29.2 34.3,19.6 "/>
<path class="st0" d="M56.2,31.6c-1-0.1-1.6-0.2-1.9-0.2c-2.3,0-4.4,0.6-6.4,1.8c-2,1.2-3.6,2.7-4.7,4.7c-1.2,1.9-1.8,4.1-1.8,6.5
	l0.2,22.1h-9.6l-0.1-23.6c0-3.9,1-7.5,3-10.8c2-3.3,4.7-6,8.3-7.9c3.4-1.9,7.1-2.9,11-2.9l2.1,0.2V31.6z"/>
<path class="st0" d="M90.6,62.1c-3.9,2.8-8.3,4.2-13,4.2c-4,0-7.7-1-11.1-3c-3.4-2-6.1-4.7-8.1-8.2c-2-3.3-3-7-3-11.1
	c0-4,1-7.7,3-11.1c2-3.4,4.7-6.1,8.2-8.2c3.4-2,7.1-3,11.1-3c3.9,0,7.6,1,11,2.9c3.4,1.9,6.1,4.6,8.2,7.8c2,3.3,3,7,3,10.8L99.8,66
	h-9.2V62.1z M88.8,37.6c-1.2-2-2.7-3.6-4.7-4.8c-2-1.1-4.1-1.7-6.5-1.7c-2.3,0-4.4,0.6-6.4,1.8c-2,1.2-3.6,2.7-4.7,4.7
	c-1.2,1.9-1.8,4.1-1.8,6.5c0,2.3,0.6,4.4,1.8,6.4c1.2,2,2.7,3.6,4.7,4.7c1.9,1.2,4.1,1.8,6.5,1.8c2.3,0,4.4-0.6,6.4-1.8
	c2-1.2,3.6-2.8,4.8-4.7c1.1-2,1.7-4.1,1.7-6.5C90.6,41.7,90,39.6,88.8,37.6z"/>
<path class="st0" d="M104.1,16.3c-1.2-1.2-1.8-2.6-1.8-4.3c0-1.6,0.6-3,1.8-4.2c1.2-1.2,2.6-1.8,4.3-1.8s3.1,0.6,4.3,1.8
	c1.2,1.2,1.8,2.6,1.8,4.2c0,1.7-0.6,3.1-1.8,4.3c-1.2,1.2-2.6,1.8-4.3,1.8S105.3,17.5,104.1,16.3z M114,66.5h-10.8V21.9H114V66.5z"
	/>
<path class="st0" d="M150.4,41.5c0-3.2-1.1-5.7-3.3-7.5c-2.2-1.8-4.8-2.7-8-2.7c-3.2,0-5.9,0.9-8,2.7c-2.2,1.8-3.3,4.3-3.3,7.5v24.9
	h-9.2V41.5c0-3.8,0.9-7.2,2.8-10.2c1.9-3,4.4-5.3,7.7-6.9c3.2-1.6,6.5-2.4,10-2.4c3.6,0,7,0.8,10.1,2.4s5.7,3.9,7.6,6.8
	c1.9,3.1,2.9,6.5,2.9,10.3l-0.2,24.9h-9.2V41.5z"/>
<path class="st0" d="M177.8,27.4c0-3.9,1-7.5,3-10.8c2-3.3,4.7-6,8.3-7.9c3.4-1.9,7.1-2.9,11-2.9l2.1,0.2V16c-1-0.1-1.6-0.2-1.9-0.2
	c-2.9,0-5.5,0.9-7.8,2.6c-2.3,1.8-3.9,4-4.6,6.7h12l-2.5,9.5h-9.9l0.2,31.5h-9.6L177.8,27.4z"/>
<path class="st0" d="M209.6,63.3c-3.4-2-6.1-4.7-8.1-8.2c-2-3.3-3-7-3-11.1c0-4,1-7.7,3-11.1c2-3.4,4.7-6.1,8.2-8.2
	c3.4-2,7.1-3,11.1-3c3.9,0,7.6,1,11.1,3c3.4,2,6.2,4.7,8.2,8.1c2,3.4,3,7.2,3,11.2c0,4-1,7.7-3,11.1c-2,3.4-4.7,6.1-8.1,8.1
	c-3.4,2-7.1,3-11.2,3C216.7,66.3,213,65.3,209.6,63.3z"/>
<path class="st1" d="M226.9,54.8c1.9-1.1,3.4-2.6,4.5-4.5c1.1-1.9,1.6-4,1.6-6.2c0-2.2-0.5-4.3-1.6-6.2c-1.1-1.9-2.6-3.4-4.5-4.5
	c-1.9-1.1-4-1.6-6.2-1.6c-2.2,0-4.3,0.5-6.2,1.6c-1.9,1.1-3.4,2.6-4.5,4.5c-1.1,1.9-1.6,4-1.6,6.2c0,2.2,0.5,4.3,1.6,6.2
	c1.1,1.9,2.6,3.4,4.5,4.5c1.9,1.1,4,1.6,6.2,1.6C222.9,56.4,225,55.9,226.9,54.8z"/>
<path class="st0" d="M269.8,31.6c-1-0.1-1.6-0.2-1.9-0.2c-2.3,0-4.4,0.6-6.4,1.8c-2,1.2-3.6,2.7-4.7,4.7c-1.2,1.9-1.8,4.1-1.8,6.5
	l0.2,22.1h-9.6l-0.1-23.6c0-3.9,1-7.5,3-10.8c2-3.3,4.7-6,8.3-7.9c3.4-1.9,7.1-2.9,11-2.9l2.1,0.2V31.6z"/>
<path class="st1" d="M299.4,5.7v60.6h-10.8V5.7H299.4z"/>
<path class="st1" d="M304.5,16.3c-1.2-1.2-1.8-2.6-1.8-4.3c0-1.6,0.6-3,1.8-4.2c1.2-1.2,2.6-1.8,4.3-1.8s3.1,0.6,4.3,1.8
	c1.2,1.2,1.8,2.6,1.8,4.2c0,1.7-0.6,3.1-1.8,4.3c-1.2,1.2-2.6,1.8-4.3,1.8S305.6,17.5,304.5,16.3z M314.4,66.5h-10.8V21.9h10.8V66.5
	z"/>
<path class="st1" d="M317.3,27.4c0-3.9,1-7.5,3-10.8c2-3.3,4.7-6,8.3-7.9c3.4-1.9,7.1-2.9,11-2.9l2.1,0.2V16c-1-0.1-1.6-0.2-1.9-0.2
	c-2.9,0-5.5,0.9-7.8,2.6c-2.3,1.8-3.9,4-4.6,6.7h12l-2.5,9.5h-9.9l0.2,31.5h-9.6L317.3,27.4z"/>
<path class="st1" d="M347.7,25.8c3.8-2.6,8-3.9,12.6-3.9c3.1,0,6.3,0.8,9.7,2.3c3.3,1.5,6.2,4,8.5,7.4c2.6,3.9,3.9,8.1,3.9,12.6
	c0,1.2-0.1,2.4-0.2,3.5l-0.2-0.1v0.1l-34,0.9c0.7,1.8,1.6,3.4,3,4.7c1.3,1.3,2.8,2.3,4.6,3c1.4,0.5,3,0.8,4.6,0.8
	c1.9,0,3.7-0.4,5.4-1.1c1.7-0.7,3.2-1.8,4.4-3.2l8.9,3.4c-2,3.1-4.7,5.6-8,7.4c-3.3,1.8-6.9,2.7-10.7,2.7c-3.2,0-6.4-0.8-9.7-2.3
	c-3.3-1.5-6.1-4-8.5-7.5c-2.6-3.9-3.9-8.1-3.9-12.6c0-2.6,0.5-5.3,1.5-7.9C341.1,31.9,343.9,28.4,347.7,25.8z M347.9,40l24.4-0.6
	c-0.6-1.7-1.5-3.2-2.8-4.5c-1.3-1.3-2.8-2.3-4.6-2.9c-1.4-0.5-3-0.8-4.6-0.8c-2.7,0-5.1,0.7-7.4,2.2c-2.2,1.5-3.9,3.5-4.8,6.1
	L347.9,40z"/>
<path class="st0" d="M385.8,64.7c-1.2-1.2-1.8-2.6-1.8-4.3c0-1.6,0.6-3,1.8-4.2c1.2-1.2,2.6-1.8,4.3-1.8s3.1,0.6,4.3,1.8
	s1.8,2.6,1.8,4.2c0,1.7-0.6,3.1-1.8,4.3c-1.2,1.2-2.6,1.8-4.3,1.8S387,65.9,385.8,64.7z"/>
</svg>
